<svg width="60" height="44" viewBox="0 0 60 44" fill="none" xmlns="http://www.w3.org/2000/svg">
<g clip-path="url(#clip0_837_4632)">
<path d="M2.07947 43.8197V31.2363H4.029L9.57216 40.4207H8.5454L13.9976 31.2363H15.9471V43.8197H13.7247V34.7063H14.199L9.55916 42.3814H8.49342L3.78206 34.7063H4.32792V43.8197H2.07947Z" fill="#28003E"/>
<path d="M25.3439 43.9999C24.4088 44.0115 23.4801 43.8452 22.6081 43.5097C21.8006 43.2031 21.0611 42.743 20.4311 42.1553C19.8186 41.5755 19.3321 40.8776 19.0014 40.1043C18.3259 38.4497 18.3259 36.5991 19.0014 34.9445C19.3254 34.174 19.8028 33.4764 20.4051 32.8935C21.0365 32.306 21.7755 31.844 22.5821 31.5326C24.3369 30.8876 26.2664 30.8876 28.0213 31.5326C28.8247 31.8426 29.5597 32.3048 30.1852 32.8935C30.8002 33.47 31.289 34.166 31.6214 34.9381C32.2936 36.5933 32.2936 38.4426 31.6214 40.0978C31.2924 40.8717 30.8031 41.5683 30.1852 42.1424C29.5609 42.7294 28.8254 43.1876 28.0213 43.4904C27.1697 43.828 26.2609 44.001 25.3439 43.9999ZM25.3439 41.9489C25.9505 41.9534 26.5524 41.844 27.118 41.6264C27.649 41.4194 28.1296 41.1028 28.5281 40.6977C28.9315 40.2981 29.2497 39.8221 29.4639 39.2981C29.9142 38.1601 29.9142 36.8952 29.4639 35.7572C29.2483 35.2319 28.9303 34.7541 28.5281 34.3511C28.1294 33.9478 27.6487 33.6334 27.118 33.4288C26.5524 33.2112 25.9505 33.1018 25.3439 33.1063C24.7394 33.1006 24.1393 33.2101 23.5763 33.4288C23.0227 33.6296 22.5179 33.9439 22.0947 34.3511C21.6906 34.7539 21.3704 35.2316 21.1524 35.7572C20.924 36.3185 20.8092 36.919 20.8145 37.5244C20.8105 38.1297 20.9253 38.7299 21.1524 39.2916C21.3684 39.8182 21.6889 40.2964 22.0947 40.6977C22.4932 41.1028 22.9739 41.4194 23.5049 41.6264C24.078 41.8387 24.6869 41.9394 25.2984 41.9231L25.3439 41.9489Z" fill="#28003E"/>
<path d="M34.6237 43.8195V31.2361H40.5632C41.7903 31.1555 43.0111 31.4675 44.0464 32.1261C44.4256 32.3961 44.7323 32.7542 44.9397 33.1691C45.147 33.584 45.2486 34.0431 45.2356 34.5061C45.2616 35.0882 45.1147 35.6651 44.8132 36.165C44.5116 36.665 44.0687 37.066 43.5395 37.3182C43.008 37.5778 42.4227 37.7103 41.8304 37.7052L42.1553 37.0602C42.8259 37.046 43.4914 37.1781 44.1049 37.4472C44.6504 37.6886 45.1166 38.0775 45.45 38.5694C45.7982 39.1164 45.9725 39.7546 45.9504 40.4011C45.9721 40.8914 45.8685 41.3791 45.6492 41.8189C45.4299 42.2587 45.1021 42.6363 44.6962 42.9165C43.5708 43.6016 42.2566 43.9176 40.9401 43.8195H34.6237ZM36.9826 41.9878H40.7842C41.4868 42.0264 42.187 41.8772 42.8117 41.5556C43.0306 41.397 43.2086 41.1893 43.3314 40.9494C43.4541 40.7096 43.5181 40.4444 43.5181 40.1754C43.5181 39.9064 43.4541 39.6412 43.3314 39.4013C43.2086 39.1615 43.0306 38.9538 42.8117 38.7952C42.1899 38.4652 41.4879 38.3133 40.7842 38.3566H36.8006V36.5378H40.2903C40.9676 36.5927 41.6461 36.4468 42.2398 36.1185C42.4525 35.9788 42.6245 35.7862 42.7385 35.5598C42.8526 35.3334 42.9047 35.0812 42.8897 34.8286C42.9008 34.5765 42.847 34.3257 42.7333 34.0999C42.6196 33.8742 42.4497 33.681 42.2398 33.5386C41.6504 33.1957 40.9726 33.0319 40.2903 33.0678H36.9826V41.9878Z" fill="#28003E"/>
<path d="M50.7657 41.859H57.9139V43.7939H48.4067V31.2363H57.6605V33.1712H50.7657V41.859ZM50.5837 36.4671H56.8872V38.402H50.5837V36.4671Z" fill="#28003E"/>
<path d="M42.5257 13.6479L35.7998 6.70801L29.9967 12.3128L36.9695 19.0399L42.5257 13.6479Z" fill="#8732C9"/>
<path d="M29.9967 12.3128L24.1936 6.70801L17.4678 13.6479L29.9967 25.8056L36.9696 19.0399L29.9967 12.3128Z" fill="#28003E"/>
<path d="M24.1937 6.70771L17.1754 0L0 17.698L7.0183 24.4122L17.4678 13.6476L24.1742 6.73351L24.1937 6.70771Z" fill="#8732C9"/>
<path d="M35.7998 6.70771L42.8246 0L60 17.698L52.9751 24.4122L42.5257 13.6476L35.8258 6.73351L35.7998 6.70771Z" fill="#28003E"/>
</g>
<defs>
<clipPath id="clip0_837_4632">
<rect width="60" height="44" fill="white"/>
</clipPath>
</defs>
</svg>
